<?xml version="1.0" encoding="UTF-8" standalone="no"?>
<svg width="12px" height="14px" viewBox="0 0 12 14" version="1.1" xmlns="http://www.w3.org/2000/svg" xmlns:xlink="http://www.w3.org/1999/xlink" xmlns:sketch="http://www.bohemiancoding.com/sketch/ns">
    <!-- Generator: Sketch 3.5.2 (25235) - http://www.bohemiancoding.com/sketch -->
    <title>thumb_up_filled</title>
    <desc>Created with Sketch.</desc>
    <defs></defs>
    <g id="Page-1" stroke="none" stroke-width="1" fill="none" fill-rule="evenodd" sketch:type="MSPage">
        <g id="List-View" sketch:type="MSArtboardGroup" transform="translate(-1157.000000, -904.000000)" fill="#FFFFFF">
            <g id="Group-2-Copy-7" sketch:type="MSLayerGroup" transform="translate(1106.000000, 892.000000)">
                <g id="thumb_up_filled" transform="translate(51.000000, 12.000000)" sketch:type="MSShapeGroup">
                    <g id="Слой_1">
                        <path d="M9.6,14 L3.08571429,14 C1.38445714,14 0,12.6215122 0,10.9268293 L0,7.71707317 C0,7.05531707 0.1944,6.44887805 0.5784,5.91380488 L4.42011429,0.652878049 C4.65874286,0.253365854 5.06365714,0 5.48571429,0 C6.0552,0 6.85714286,0.487268293 6.85714286,1.57073171 C6.85714286,1.88078049 6.77211429,2.08907317 6.68982857,2.29053659 C6.67028571,2.338 6.65005714,2.38785366 6.62982857,2.44146341 C6.50125714,2.80034146 5.82171429,4.32770732 5.46582857,5.12229268 C6.52045714,5.12365854 8.85874286,5.13014634 9.74742857,5.15609756 L9.74777143,5.15609756 C10.7249143,5.15609756 11.3142857,5.81580488 11.3142857,6.45331707 C11.3142857,6.67253659 11.2776,6.97097561 11.2467429,7.18097561 C11.5491429,7.36058537 12,7.74370732 12,8.43414634 C12,8.91356098 11.7689143,9.26936585 11.5460571,9.50156098 C11.7726857,9.70882927 12,10.0362927 12,10.5170732 C12,11.2023902 11.5261714,11.6182927 11.1867429,11.8282927 C11.2536,12.006878 11.3142857,12.2469268 11.3142857,12.5317073 C11.3142857,13.1449756 10.6621714,14 9.6,14 L9.6,14 Z" id="Shape"></path>
                    </g>
                </g>
            </g>
        </g>
    </g>
</svg>